Coordinates
version=1
nRows=19
nColumns=36
inDegrees=yes

Units are S.I. units (second, meters, Newtons, ...)
If the header above contains a line with 'inDegrees', this indicates whether rotational values are in degrees (yes) or radians (no).

endheader
time	pelvis_tilt	pelvis_list	pelvis_rotation	pelvis_tx	pelvis_ty	pelvis_tz	hip_flexion_r	hip_adduction_r	hip_rotation_r	knee_angle_r	knee_angle_r_beta	ankle_angle_r	subtalar_angle_r	mtp_angle_r	hip_flexion_l	hip_adduction_l	hip_rotation_l	knee_angle_l	knee_angle_l_beta	ankle_angle_l	subtalar_angle_l	mtp_angle_l	lumbar_extension	lumbar_bending	lumbar_rotation	arm_flex_r	arm_add_r	arm_rot_r	elbow_flex_r	pro_sup_r	arm_flex_l	arm_add_l	arm_rot_l	elbow_flex_l	pro_sup_l
      4.30000000	     -9.88224414	      0.47918593	    -22.54048556	      1.02780766	      0.92370666	     -0.02243269	     42.82420960	      3.09890614	      2.35373547	     72.05758584	      1.25764212	     10.06192126	    -17.10186728	     -7.49999987	     13.23540788	      3.82947774	      5.12911857	     14.03364521	      0.24493332	      6.90470903	    -11.68196298	     -7.49999987	      5.11577213	      0.89066954	     -3.41599538	     31.77237828	      8.91053795	     53.40673768	    110.49941405	    100.44627527	     47.35037997	      5.87918069	     65.73870818	    115.74838614	     91.25522525
      4.31666670	     -9.90092683	      0.43482926	    -22.76900102	      1.02758094	      0.92437769	     -0.02201736	     42.31837036	      2.96274723	      2.32591257	     66.86197285	      1.16696157	      9.32924339	    -17.49241953	     -7.49999987	     13.19616841	      3.62742082	      5.14978828	     14.13743768	      0.24674484	      7.14469889	    -11.45591845	     -7.49999987	      5.07203223	      1.01447287	     -3.42784231	     31.74488282	      8.96196054	     53.61212282	    110.13954325	    100.28506519	     47.12011830	      5.60708296	     65.91902731	    115.70316505	     91.10567729
      4.33333330	     -9.89170053	      0.31956376	    -22.79558058	      1.02756836	      0.92435728	     -0.02181207	     41.06226072	      2.75607152	      2.23351529	     60.61814627	      1.05798624	      7.56186244	    -17.97284603	     -7.49999987	     13.05697198	      3.43143058	      5.29595782	     14.29909853	      0.24956635	      7.23560694	    -11.26857285	     -7.49999987	      4.94162503	      1.06050342	     -3.55906543	     31.67039510	      8.91647130	     54.01578776	    109.80726018	    100.27507591	     47.01049447	      5.39977599	     66.14735719	    115.62033868	     91.04439277
      4.35000000	    -10.06362190	      0.43715225	    -22.78141259	      1.02771257	      0.92477228	     -0.02139175	     40.42354112	      2.44909773	      2.28346358	     55.00425055	      0.96000527	      6.61869733	    -17.66743066	     -7.49999987	     13.18214726	      3.39820043	      5.35574268	     14.33406709	      0.25017667	      6.95690076	    -11.05961214	     -7.49999987	      5.12665174	      0.95206429	     -3.47872505	     31.48335796	      8.82158739	     54.25178330	    109.62620959	    100.19631995	     46.82524813	      5.28837893	     66.48986410	    115.58629790	     91.02426266
      4.36666670	     -9.85760582	      0.02511964	    -22.74928285	      1.02758631	      0.92534887	     -0.02132048	     39.24715561	      2.58394614	      2.17854109	     49.39642838	      0.86213031	      5.03061766	    -18.28035580	     -7.49999987	     12.69993984	      3.05086106	      5.42371203	     14.17462975	      0.24739396	      7.05654500	    -10.78650587	     -7.49999987	      4.38152160	      1.25706470	     -3.56049589	     31.74481699	      8.75761945	     54.73432198	    109.70353631	    100.50809676	     46.81907507	      5.31256335	     66.75231900	    115.63198281	     91.30369808
      4.38333330	    -10.10357987	      0.05026680	    -22.69695960	      1.02756896	      0.92550858	     -0.02089466	     39.13753911	      2.43789662	      2.23568550	     44.23861168	      0.77210943	      4.36826578	    -17.64854595	     -7.49999987	     12.90166921	      2.96567870	      5.67892006	     14.01490325	      0.24460621	      7.38599432	    -10.74907118	     -7.49999987	      4.41695766	      1.30419882	     -3.47531923	     31.49310142	      8.68965682	     54.83709539	    109.88636328	    101.05486008	     46.56961590	      5.32284497	     67.09731431	    115.86078344	     91.69954245
      4.40000000	     -9.76826724	     -0.24642986	    -22.48295910	      1.02734752	      0.92568160	     -0.02092348	     38.04328995	      2.29607535	      2.27479459	     39.01956333	      0.68101985	      3.08687904	    -17.28086877	     -7.49999987	     12.54162440	      2.74041247	      6.02565982	     13.91769265	      0.24290956	      8.03705120	    -10.24234601	     -7.49999987	      3.70534988	      1.42420335	     -3.70561809	     31.46300523	      8.60832765	     54.82859328	    110.23030369	    101.83693553	     46.60360335	      5.31991200	     66.98242598	    116.05570814	     92.30057526
      4.41666670	     -9.45500398	     -0.28725895	    -22.27426565	      1.02693115	      0.92619188	     -0.02071504	     37.48246691	      2.04501474	      2.50375190	     34.33722921	      0.59929771	      2.35376332	    -16.46800144	     -7.49999987	     12.22516051	      2.83393867	      6.40856487	     13.72674925	      0.23957697	      9.05344278	     -9.75878273	     -7.49999987	      3.15313684	      1.22274234	     -3.80462392	     31.46955146	      8.81078471	     54.62097238	    110.28454976	    102.42637834	     46.60997791	      5.35047860	     67.02565172	    116.20566392	     92.77994514
      4.43333330	     -8.94642965	     -0.32923504	    -22.06577099	      1.02645259	      0.92633709	     -0.02067087	     37.05279207	      1.65652240	      2.62158127	     30.68725401	      0.53559362	      2.03232144	    -15.47111425	     -7.49999987	     11.90482899	      2.88281328	      6.47557898	     13.94519900	      0.24338964	     10.31329113	     -9.18002432	     -7.49999987	      2.37911896	      0.90901323	     -4.05228240	     31.51129743	      8.92668786	     54.53202368	    110.51180760	    102.81838306	     46.74798190	      5.47211015	     67.17827717	    116.27029694	     93.11435704
      4.45000000	     -8.58180775	     -0.31654649	    -21.68304477	      1.02605163	      0.92664374	     -0.02056631	     37.18107533	      1.34926242	      2.80841721	     27.78276925	      0.48490080	      2.13348635	    -14.01798651	     -7.49999987	     11.83555840	      2.96088429	      6.62260256	     14.22851715	      0.24833447	     11.70760256	     -8.45626389	     -7.49999987	      1.77514095	      0.55565856	     -4.29678212	     31.51501178	      8.97735031	     54.39791227	    110.73548647	    101.96080890	     46.94867389	      5.60502118	     67.44384344	    116.29550621	     93.31184065
      4.46666670	     -8.16962025	     -0.21508069	    -21.41725546	      1.02546347	      0.92617670	     -0.02067787	     37.83896850	      0.81445911	      2.78422477	     26.41705396	      0.46106457	      2.55709200	    -12.84796055	     -7.49999987	     11.88911612	      3.15497754	      6.69309404	     14.82332616	      0.25871585	     12.93136879	     -7.81983485	     -7.49999987	      1.12047166	      0.13995076	     -4.42757882	     31.63823946	      9.06606467	     54.34181769	    111.07680084	     99.92052197	     47.36603706	      5.71817396	     67.68124022	    116.46718539	     92.42202810
      4.48333330	     -7.91575706	     -0.02332242	    -21.21996271	      1.02506589	      0.92582014	     -0.02043602	     38.44301893	      0.33172369	      2.98948492	     25.29091685	      0.44140977	      2.64642608	    -12.57033992	     -7.49999987	     11.96244409	      3.42837678	      6.99350794	     15.14508161	      0.26433154	     13.54943638	     -7.91114282	     -7.49999987	      0.80353655	     -0.24950003	     -4.34940878	     31.85859883	      9.28023344	     54.22214853	    110.97950043	     99.97212209	     47.56920307	      5.85168244	     67.63763774	    116.55352301	     92.43080931
      4.50000000	     -7.62618391	     -0.22135284	    -20.76507412	      1.02443678	      0.92580504	     -0.02118255	     39.09770666	     -0.01384213	      2.60855446	     24.45961038	      0.42690073	      2.92036882	    -11.75656952	     -7.49999987	     12.15768612	      3.40387992	      7.34181282	     15.92377098	      0.27792223	     14.92367784	     -7.23028042	     -7.49999987	      0.06483592	     -0.21505073	     -4.56710586	     32.11115894	      9.41944853	     53.87622629	    110.82072922	    100.26196028	     48.13957276	      6.04694146	     68.00617542	    116.71727166	     92.50703296
      4.51666670	     -7.31864927	     -0.22435804	    -20.58000888	      1.02382683	      0.92630213	     -0.02109887	     39.58176245	     -0.27945937	      2.87592353	     23.93648758	      0.41777052	      3.21797261	    -11.48752862	     -7.49999987	     12.11311763	      3.52114629	      7.55663274	     16.29192070	      0.28434766	     15.64410051	     -7.04235165	     -7.49999987	     -0.36780041	     -0.41523317	     -4.52097190	     32.32328790	      9.41961168	     53.71373826	    110.74547321	    100.36234288	     48.25585258	      6.18180370	     68.16538971	    116.99553864	     92.53497257
      4.53333330	     -7.03098246	     -0.13405015	    -20.33502534	      1.02313551	      0.92595000	     -0.02135881	     40.06910332	     -0.62540476	      3.14252324	     23.26326533	      0.40602057	      3.19580347	    -11.15768768	     -7.49999987	     12.02971053	      3.73221813	      7.79280011	     16.46264345	      0.28732733	     16.12126280	     -6.82564842	     -7.49999987	     -0.77704991	     -0.54748867	     -4.45780040	     32.32240100	      9.37352169	     53.70385772	    110.58464794	    100.41888438	     48.43922678	      6.18651693	     68.11557159	    117.05746937	     92.53959533
      4.55000000	     -6.28051214	     -0.44351853	    -20.18164072	      1.01749565	      0.92688922	     -0.02566479	     39.98989333	     -0.84105457	      2.76831455	     22.66225798	      0.39553102	      3.21246419	    -10.33537462	     -7.49999987	     11.57153541	      3.65256780	      7.54733530	     16.90865972	      0.29511178	     17.13125775	     -5.30449549	     -7.49999987	     -2.27267519	     -0.41076582	     -4.61876285	     33.23628391	      9.29877137	     53.74392178	    110.24601902	    101.47238882	     49.32613742	      6.14800086	     67.96829042	    117.22228248	     92.23548217
      4.56666670	     -6.06243923	     -0.35362989	    -20.13431171	      1.01701321	      0.92630467	     -0.02566926	     40.46637363	     -1.07874496	      2.81869134	     22.22047746	      0.38782049	      2.93320201	    -10.02946395	     -7.49999987	     11.61297353	      3.82505880	      7.65086450	     17.12901994	      0.29895780	     17.18879123	     -5.17355429	     -7.49999987	     -2.71079754	     -0.47126358	     -4.57747287	     33.58122040	      9.36877447	     53.60835406	    110.11429514	    101.52424988	     49.76457581	      6.12673275	     67.72867586	    117.19143293	     92.23638337
      4.58333330	     -5.84947973	     -0.32042057	    -19.99947260	      1.01691417	      0.92382983	     -0.02576785	     41.09087126	     -1.24704628	      2.87790438	     22.01754794	      0.38427870	      2.79121214	     -9.87712294	     -7.49999987	     11.59451159	      3.91534869	      7.62447555	     17.20286245	      0.30024659	     17.24344244	     -5.13706624	     -7.49999987	     -3.14638491	     -0.37997531	     -4.62954599	     33.70994217	      9.36153262	     53.54298906	    110.07177937	    101.53367769	     49.85629081	      6.20502649	     67.68975478	    117.17229167	     92.23744421
      4.60000000	     -5.11032900	     -0.60072336	    -19.62974143	      1.02080292	      0.92481076	     -0.02246485	     40.75434780	     -1.47130444	      2.52269476	     21.53220858	      0.37580793	      2.99287147	     -8.70750460	     -7.49999987	     10.92449408	      3.85965581	      7.44026510	     17.56213110	      0.30651701	     17.91674725	     -4.12957446	     -7.49999987	     -4.40115550	     -0.41306199	     -4.69691033	     34.05537191	      9.68556145	     53.48573730	    110.48312902	    101.94736507	     50.47567223	      6.55682206	     67.77290711	    117.72847974	     92.36239059
